<svg xmlns="http://www.w3.org/2000/svg" width="180" height="220" viewBox="0 0 180 220" ><defs>
    <linearGradient id="thumb-metal" x1="0" y1="0" x2="1" y2="1"><stop stop-color="#FFFFFF"/><stop offset=".34" stop-color="#B9EFFF"/><stop offset=".7" stop-color="#A754FF"/><stop offset="1" stop-color="#083B91"/></linearGradient>
    <linearGradient id="thumb-accent" x1="0" y1="0" x2="0" y2="1"><stop stop-color="#FFF2A4"/><stop offset=".45" stop-color="#FFD05A"/><stop offset="1" stop-color="#D85B08"/></linearGradient>
    <radialGradient id="thumb-core"><stop stop-color="#FFFFFF"/><stop offset=".28" stop-color="#A754FF"/><stop offset="1" stop-color="#06317C"/></radialGradient>
    <filter id="thumb-glow"><feGaussianBlur stdDeviation="3" result="b"/><feMerge><feMergeNode in="b"/><feMergeNode in="SourceGraphic"/></feMerge></filter>
  </defs>
    <g transform="translate(40 16)">
      <path d="M50 8C78 8 91 29 88 57V137C88 168 72 190 50 190S12 168 12 137V57C9 29 22 8 50 8Z" fill="#79D89B" stroke="#E9FFF4" stroke-width="5"/>
      <path d="M19 61C24 30 76 30 81 61V78H19Z" fill="#A754FF" stroke="#DFFBFF" stroke-width="4"/>
      <path d="M18 100 32 81H68L82 100V153L63 176H37L18 153Z" fill="#A754FF" stroke="#DFFBFF" stroke-width="4"/>
      <circle cx="36" cy="69" r="7" fill="#07163D"/><circle cx="64" cy="69" r="7" fill="#07163D"/>
      <circle cx="33" cy="66" r="2.5" fill="#fff"/><circle cx="61" cy="66" r="2.5" fill="#fff"/>
      <path d="M39 83Q50 91 61 83" fill="none" stroke="#143B44" stroke-width="3" stroke-linecap="round"/>
      <path d="M15 50 -3 40M85 50 103 40" stroke="#79D89B" stroke-width="13" stroke-linecap="round"/>
      <path d="M35 179 31 204M65 179 69 204" stroke="#79D89B" stroke-width="14" stroke-linecap="round"/>
      <path d="M50 108 61 119 50 132 39 119Z" fill="#FFD05A" stroke="#FFF3B0" stroke-width="2"/>
      <text x="50" y="103" text-anchor="middle" fill="#fff" font-family="Arial Black, sans-serif" font-size="9">nova</text>
    </g></svg>